<?xml version="1.0" encoding="UTF-8" standalone="no"?>
<!DOCTYPE svg PUBLIC "-//W3C//DTD SVG 1.1//EN" "http://www.w3.org/Graphics/SVG/1.1/DTD/svg11.dtd">
<svg width="100%" height="100%" viewBox="0 0 24 24" version="1.1" xmlns="http://www.w3.org/2000/svg" xmlns:xlink="http://www.w3.org/1999/xlink" xml:space="preserve" xmlns:serif="http://www.serif.com/" style="fill-rule:evenodd;clip-rule:evenodd;stroke-linejoin:round;stroke-miterlimit:2;">
    <g transform="matrix(1.147327,0,0,1.147327,-1.780112,-2.054752)">
        <path d="M19,4.743L19,19.257C19,20.219 18.219,21 17.257,21L6.743,21C5.781,21 5,20.219 5,19.257L5,4.743C5,3.781 5.781,3 6.743,3L17.257,3C18.219,3 19,3.781 19,4.743Z" style="fill:rgb(96,125,139);"/>
    </g>
    <g transform="matrix(1.147327,0,0,1.147327,-1.780112,-2.054752)">
        <rect x="7" y="7" width="10" height="1" style="fill:white;"/>
    </g>
    <g transform="matrix(1.147327,0,0,1.147327,-1.780112,-2.054752)">
        <rect x="7" y="10" width="10" height="1" style="fill:white;"/>
    </g>
    <g transform="matrix(1.147327,0,0,1.147327,-1.780112,-2.054752)">
        <rect x="7" y="13" width="10" height="1" style="fill:white;"/>
    </g>
    <g transform="matrix(1.147327,0,0,1.147327,-1.780112,-2.054752)">
        <rect x="9" y="2" width="6" height="2" style="fill:rgb(144,164,174);fill-rule:nonzero;"/>
    </g>
    <g transform="matrix(1,0,0,1,16.5,17.5)">
        <g transform="matrix(1.147327,0,0,1.147327,0.650778,0.523465)">
            <circle cx="0" cy="0" r="3.5" style="fill:rgb(255,193,7);"/>
        </g>
        <g transform="matrix(1.147327,0,0,1.147327,0.650778,0.523465)">
            <circle cx="0" cy="0" r="1.5" style="fill:white;"/>
        </g>
        <g transform="matrix(1.147327,0,0,1.147327,0.650778,0.523465)">
            <rect x="-1" y="-5" width="2" height="3" style="fill:rgb(255,193,7);"/>
        </g>
        <g transform="matrix(0.811282,0.811282,-0.811282,0.811282,0.650778,0.523465)">
            <rect x="-1" y="-5" width="2" height="3" style="fill:rgb(255,193,7);"/>
        </g>
        <g transform="matrix(-0,1.147327,-1.147327,-0,0.650778,0.523465)">
            <rect x="-1" y="-5" width="2" height="3" style="fill:rgb(255,193,7);"/>
        </g>
        <g transform="matrix(-0.811282,0.811282,-0.811282,-0.811282,0.650778,0.523465)">
            <rect x="-1" y="-5" width="2" height="3" style="fill:rgb(255,193,7);"/>
        </g>
        <g transform="matrix(-1.147327,-0,0,-1.147327,0.650778,0.523465)">
            <rect x="-1" y="-5" width="2" height="3" style="fill:rgb(255,193,7);"/>
        </g>
        <g transform="matrix(-0.811282,-0.811282,0.811282,-0.811282,0.650778,0.523465)">
            <rect x="-1" y="-5" width="2" height="3" style="fill:rgb(255,193,7);"/>
        </g>
        <g transform="matrix(0,-1.147327,1.147327,0,0.650778,0.523465)">
            <rect x="-1" y="-5" width="2" height="3" style="fill:rgb(255,193,7);"/>
        </g>
        <g transform="matrix(0.811282,-0.811282,0.811282,0.811282,0.650778,0.523465)">
            <rect x="-1" y="-5" width="2" height="3" style="fill:rgb(255,193,7);"/>
        </g>
    </g>
</svg>
